	<svg xmlns="http://www.w3.org/2000/svg" version="2.0" viewBox="7 -7 101 121" width="400" height="479.2079207920792"><style>
polyline {
  fill:none;
  stroke-width:1;
  stroke: lightgrey;
}
polygon {
  fill:green;
}
text {
  font-size: 10px;
}
.linegraph {
  stroke-width: 0.5;
  stroke: blue;
}
.tickmark {
    font-size: 2px;
    font-family: monospace;
}
.cordinate-line {
    stroke-width: 0.5;
    stroke: lightgray;
    stroke-dasharray: 1,1;
}
</style><g transform="scale(1,-1)" transform-origin="22.3077 51.21795"><circle cx="55.3846" cy="97.1795" r="1"></circle><circle cx="51.5385" cy="96.0256" r="1"></circle><circle cx="46.1538" cy="94.4872" r="1"></circle><circle cx="42.8205" cy="91.4103" r="1"></circle><circle cx="40.7692" cy="88.3333" r="1"></circle><circle cx="38.7179" cy="84.8718" r="1"></circle><circle cx="35.641" cy="79.8718" r="1"></circle><circle cx="33.0769" cy="77.5641" r="1"></circle><circle cx="28.9744" cy="74.4872" r="1"></circle><circle cx="26.1538" cy="71.4103" r="1"></circle><circle cx="23.0769" cy="66.4103" r="1"></circle><circle cx="22.3077" cy="61.7949" r="1"></circle><circle cx="22.3077" cy="57.1795" r="1"></circle><circle cx="23.3333" cy="52.9487" r="1"></circle><circle cx="25.8974" cy="51.0256" r="1"></circle><circle cx="29.4872" cy="51.0256" r="1"></circle><circle cx="32.8205" cy="51.0256" r="1"></circle><circle cx="35.3846" cy="51.4103" r="1"></circle><circle cx="40.2564" cy="51.4103" r="1"></circle><circle cx="44.1026" cy="52.9487" r="1"></circle><circle cx="46.6667" cy="54.1026" r="1"></circle><circle cx="50" cy="55.2564" r="1"></circle><circle cx="53.0769" cy="55.641" r="1"></circle><circle cx="56.6667" cy="56.0256" r="1"></circle><circle cx="59.2308" cy="57.9487" r="1"></circle><circle cx="61.2821" cy="62.1795" r="1"></circle><circle cx="61.5385" cy="66.4103" r="1"></circle><circle cx="61.7949" cy="69.1026" r="1"></circle><circle cx="57.4359" cy="55.2564" r="1"></circle><circle cx="54.8718" cy="49.8718" r="1"></circle><circle cx="52.5641" cy="46.0256" r="1"></circle><circle cx="48.2051" cy="38.3333" r="1"></circle><circle cx="49.4872" cy="42.1795" r="1"></circle><circle cx="51.0256" cy="44.1026" r="1"></circle><circle cx="45.3846" cy="36.4103" r="1"></circle><circle cx="42.8205" cy="32.5641" r="1"></circle><circle cx="38.7179" cy="31.4103" r="1"></circle><circle cx="35.1282" cy="30.2564" r="1"></circle><circle cx="32.5641" cy="32.1795" r="1"></circle><circle cx="30" cy="36.7949" r="1"></circle><circle cx="33.5897" cy="41.4103" r="1"></circle><circle cx="36.6667" cy="45.641" r="1"></circle><circle cx="38.2051" cy="49.1026" r="1"></circle><circle cx="29.7436" cy="36.0256" r="1"></circle><circle cx="29.7436" cy="32.1795" r="1"></circle><circle cx="30" cy="29.1026" r="1"></circle><circle cx="32.0513" cy="26.7949" r="1"></circle><circle cx="35.8974" cy="25.2564" r="1"></circle><circle cx="41.0256" cy="25.2564" r="1"></circle><circle cx="44.1026" cy="25.641" r="1"></circle><circle cx="47.1795" cy="28.718" r="1"></circle><circle cx="49.4872" cy="31.4103" r="1"></circle><circle cx="51.5385" cy="34.8718" r="1"></circle><circle cx="53.5897" cy="37.5641" r="1"></circle><circle cx="55.1282" cy="40.641" r="1"></circle><circle cx="56.6667" cy="42.1795" r="1"></circle><circle cx="59.2308" cy="44.4872" r="1"></circle><circle cx="62.3077" cy="46.0256" r="1"></circle><circle cx="64.8718" cy="46.7949" r="1"></circle><circle cx="67.9487" cy="47.9487" r="1"></circle><circle cx="70.5128" cy="53.718" r="1"></circle><circle cx="71.5385" cy="60.641" r="1"></circle><circle cx="71.5385" cy="64.4872" r="1"></circle><circle cx="69.4872" cy="69.4872" r="1"></circle><circle cx="46.9231" cy="79.8718" r="1"></circle><circle cx="48.2051" cy="84.1026" r="1"></circle><circle cx="50" cy="85.2564" r="1"></circle><circle cx="53.0769" cy="85.2564" r="1"></circle><circle cx="55.3846" cy="86.0256" r="1"></circle><circle cx="56.6667" cy="86.0256" r="1"></circle><circle cx="56.1538" cy="82.9487" r="1"></circle><circle cx="53.8462" cy="80.641" r="1"></circle><circle cx="51.2821" cy="78.718" r="1"></circle><circle cx="50" cy="78.718" r="1"></circle><circle cx="47.9487" cy="77.5641" r="1"></circle><circle cx="29.7436" cy="59.8718" r="1"></circle><circle cx="29.7436" cy="62.1795" r="1"></circle><circle cx="31.2821" cy="62.5641" r="1"></circle><circle cx="57.9487" cy="99.4872" r="1"></circle><circle cx="61.7949" cy="99.1026" r="1"></circle><circle cx="64.8718" cy="97.5641" r="1"></circle><circle cx="68.4615" cy="94.1026" r="1"></circle><circle cx="70.7692" cy="91.0256" r="1"></circle><circle cx="72.0513" cy="86.4103" r="1"></circle><circle cx="73.8462" cy="83.3333" r="1"></circle><circle cx="75.1282" cy="79.1026" r="1"></circle><circle cx="76.6667" cy="75.2564" r="1"></circle><circle cx="77.6923" cy="71.4103" r="1"></circle><circle cx="79.7436" cy="66.7949" r="1"></circle><circle cx="81.7949" cy="60.2564" r="1"></circle><circle cx="83.3333" cy="55.2564" r="1"></circle><circle cx="85.1282" cy="51.4103" r="1"></circle><circle cx="86.4103" cy="47.5641" r="1"></circle><circle cx="87.9487" cy="46.0256" r="1"></circle><circle cx="89.4872" cy="42.5641" r="1"></circle><circle cx="93.3333" cy="39.8718" r="1"></circle><circle cx="95.3846" cy="36.7949" r="1"></circle><circle cx="98.2051" cy="33.718" r="1"></circle><circle cx="56.6667" cy="40.641" r="1"></circle><circle cx="59.2308" cy="38.3333" r="1"></circle><circle cx="60.7692" cy="33.718" r="1"></circle><circle cx="63.0769" cy="29.1026" r="1"></circle><circle cx="64.1026" cy="25.2564" r="1"></circle><circle cx="64.359" cy="24.1026" r="1"></circle><circle cx="74.359" cy="22.9487" r="1"></circle><circle cx="71.2821" cy="22.9487" r="1"></circle><circle cx="67.9487" cy="22.1795" r="1"></circle><circle cx="65.8974" cy="20.2564" r="1"></circle><circle cx="63.0769" cy="19.1026" r="1"></circle><circle cx="61.2821" cy="19.1026" r="1"></circle><circle cx="58.7179" cy="18.3333" r="1"></circle><circle cx="55.1282" cy="18.3333" r="1"></circle><circle cx="52.3077" cy="18.3333" r="1"></circle><circle cx="49.7436" cy="17.5641" r="1"></circle><circle cx="47.4359" cy="16.0256" r="1"></circle><circle cx="44.8718" cy="13.718" r="1"></circle><circle cx="48.7179" cy="14.8718" r="1"></circle><circle cx="51.2821" cy="14.8718" r="1"></circle><circle cx="54.1026" cy="14.8718" r="1"></circle><circle cx="56.1538" cy="14.1026" r="1"></circle><circle cx="52.0513" cy="12.5641" r="1"></circle><circle cx="48.7179" cy="11.0256" r="1"></circle><circle cx="47.1795" cy="9.8718" r="1"></circle><circle cx="46.1538" cy="6.0256" r="1"></circle><circle cx="50.5128" cy="9.4872" r="1"></circle><circle cx="53.8462" cy="10.2564" r="1"></circle><circle cx="57.4359" cy="10.2564" r="1"></circle><circle cx="60" cy="10.641" r="1"></circle><circle cx="64.1026" cy="10.641" r="1"></circle><circle cx="66.9231" cy="10.641" r="1"></circle><circle cx="71.2821" cy="10.641" r="1"></circle><circle cx="74.359" cy="10.641" r="1"></circle><circle cx="78.2051" cy="10.641" r="1"></circle><circle cx="67.9487" cy="8.718" r="1"></circle><circle cx="68.4615" cy="5.2564" r="1"></circle><circle cx="68.2051" cy="2.9487" r="1"></circle><circle cx="37.6923" cy="25.7692" r="1"></circle><circle cx="39.4872" cy="25.3846" r="1"></circle><circle cx="91.2821" cy="41.5385" r="1"></circle><circle cx="50" cy="95.7692" r="1"></circle><circle cx="47.9487" cy="95" r="1"></circle><circle cx="44.1026" cy="92.6923" r="1"></circle></g><polyline points="21.3077,2.9487 21.3077,100.4872 98.2051,100.4872"></polyline><text x="22.3077" y="114">X-axis</text><text x="17.3077" y="97.4872" transform="rotate(-90)" transform-origin="17.3077 99.4872">Y-axis</text><g id="tickmarks"><g id="tickmarks-x"><text class="tickmark" x="22.3077" y="103.4872">22</text><text class="tickmark" x="29.897440000000003" y="103.4872">30</text><text class="tickmark" x="37.48718" y="103.4872">37</text><text class="tickmark" x="45.07692" y="103.4872">45</text><text class="tickmark" x="52.66666" y="103.4872">53</text><text class="tickmark" x="60.2564" y="103.4872">60</text><text class="tickmark" x="67.84614" y="103.4872">68</text><text class="tickmark" x="75.43588000000001" y="103.4872">75</text><text class="tickmark" x="83.02562000000002" y="103.4872">83</text><text class="tickmark" x="90.61536000000002" y="103.4872">91</text></g><g id="tickmarks-y"><text class="tickmark" x="16.3077" y="3.9487">99</text><text class="tickmark" x="16.3077" y="13.60255">90</text><text class="tickmark" x="16.3077" y="23.2564">80</text><text class="tickmark" x="16.3077" y="32.910250000000005">71</text><text class="tickmark" x="16.3077" y="42.5641">61</text><text class="tickmark" x="16.3077" y="52.21795">51</text><text class="tickmark" x="16.3077" y="61.8718">42</text><text class="tickmark" x="16.3077" y="71.52565">32</text><text class="tickmark" x="16.3077" y="81.1795">22</text><text class="tickmark" x="16.3077" y="90.83335000000001">13</text></g></g></svg>